/* XPM */
static char *ad21455337ba476c8a7b257f3c4b5994[] = {
/* columns rows colors chars-per-pixel */
"64 64 256 2 ",
"   c #461E77",
".  c #451C7D",
"X  c #6E1776",
"o  c #6E1C7C",
"O  c #6E1976",
"+  c #4E266B",
"@  c #4D296A",
"#  c #48207C",
"$  c #6F217F",
"%  c #C9787D",
"&  c #D7857B",
"*  c #DB857B",
"=  c #D58A7D",
"-  c #D9897B",
";  c #E08078",
":  c #3B158B",
">  c #340F94",
",  c #330F99",
"<  c #341093",
"1  c #2E0EAB",
"2  c #320FA3",
"3  c #300FAB",
"4  c #2E12AC",
"5  c #2E0FB2",
"6  c #2E10B0",
"7  c #3610B7",
"8  c #2E21AB",
"9  c #2C23A7",
"0  c #411681",
"q  c #441B81",
"w  c #581091",
"e  c #6E1D8B",
"r  c #6B1694",
"t  c #6B1799",
"y  c #6B1B9B",
"u  c #661390",
"i  c #402F9E",
"p  c #5E2B9C",
"a  c #532C98",
"s  c #6F2482",
"d  c #6F2B86",
"f  c #6C2B8D",
"g  c #702180",
"h  c #702A85",
"j  c #6C3285",
"k  c #6C3987",
"l  c #6B3D89",
"z  c #602E96",
"x  c #6C2F97",
"c  c #6B239E",
"v  c #622D9A",
"b  c #6D2597",
"n  c #742F9B",
"m  c #673395",
"M  c #4C0EAC",
"N  c #430FBF",
"B  c #5C0EB5",
"V  c #4110BF",
"C  c #4E14BA",
"Z  c #5614BC",
"A  c #5A16BC",
"S  c #6618BD",
"D  c #6C19BD",
"F  c #751EB5",
"G  c #7819BE",
"H  c #7219BD",
"J  c #6929A1",
"K  c #7E2FAF",
"L  c #7720B0",
"P  c #584699",
"I  c #65498F",
"U  c #6A448C",
"Y  c #7A489E",
"T  c #625393",
"R  c #645C95",
"E  c #6C5D99",
"W  c #6F559A",
"Q  c #735B9C",
"!  c #656495",
"~  c #686596",
"^  c #666B95",
"/  c #696B97",
"(  c #6D6499",
")  c #6C6A99",
"_  c #74649D",
"`  c #79679F",
"'  c #736A9C",
"]  c #796B9F",
"[  c #7F42A1",
"{  c #7E4EA4",
"}  c #7B53A1",
"|  c #7C65A1",
" . c #7C6AA1",
".. c #4B0FC4",
"X. c #430FC1",
"o. c #530FC7",
"O. c #5C0FCB",
"+. c #570FCB",
"@. c #4D10C5",
"#. c #5310C7",
"$. c #5C11C9",
"%. c #630FCD",
"&. c #6C0FCE",
"*. c #710FCB",
"=. c #6514C3",
"-. c #6E12C5",
";. c #6411CB",
":. c #6C12CB",
">. c #7012C7",
",. c #7118C3",
"<. c #7819C3",
"1. c #7312CA",
"2. c #7B15CB",
"3. c #9A3C8E",
"4. c #A53F8F",
"5. c #A33D90",
"6. c #B2319C",
"7. c #BB379F",
"8. c #811CAD",
"9. c #831DB4",
"0. c #891FB7",
"q. c #831CBD",
"w. c #8D1DBA",
"e. c #931DBC",
"r. c #9A1DBD",
"t. c #8123AE",
"y. c #883CA9",
"u. c #8A22B5",
"i. c #802AB0",
"p. c #8D24B9",
"a. c #8D2AB9",
"s. c #9722BA",
"d. c #8831B5",
"f. c #B731A6",
"g. c #BA33A5",
"h. c #A621B6",
"j. c #AE20BE",
"k. c #A222B9",
"l. c #B424BB",
"z. c #BD25BC",
"x. c #BE28BE",
"c. c #C63E9D",
"v. c #C124BF",
"b. c #C930BC",
"n. c #E13CBE",
"m. c #99438A",
"M. c #97438A",
"N. c #9D558A",
"B. c #A1408E",
"V. c #976387",
"C. c #9D6686",
"Z. c #946288",
"A. c #996288",
"S. c #A06786",
"D. c #A36B86",
"F. c #AD7286",
"G. c #B27383",
"H. c #BC7581",
"J. c #8247A6",
"K. c #814CA5",
"L. c #8944AC",
"P. c #834DA9",
"I. c #8C5EAA",
"U. c #935FAC",
"Y. c #9446B2",
"T. c #BC4FAE",
"R. c #AB56AF",
"E. c #B552AF",
"W. c #A857B1",
"Q. c #AB5AB5",
"!. c #AD5EBA",
"~. c #B154B5",
"^. c #BB52BA",
"/. c #8564A5",
"(. c #8866A6",
"). c #8269A4",
"_. c #8D66AA",
"`. c #9566AE",
"'. c #9C64B2",
"]. c #A362B5",
"[. c #A763B8",
"{. c #D6459A",
"}. c #C64CAE",
"|. c #C24EBC",
" X c #CC4BBA",
".X c #D149B7",
"XX c #C250BF",
"oX c #E043A0",
"OX c #E240B7",
"+X c #8415CD",
"@X c #8A16CD",
"#X c #8519CD",
"$X c #8D1BC0",
"%X c #9C1CC1",
"&X c #9B1BC7",
"*X c #9717D1",
"=X c #9C17D2",
"-X c #9B19D2",
";X c #9418D1",
":X c #A21CC3",
">X c #A017D5",
",X c #A51BD5",
"<X c #AC1DD6",
"1X c #B31FD8",
"2X c #BE1EDB",
"3X c #9D20C6",
"4X c #A624CC",
"5X c #BE28C0",
"6X c #AE26D3",
"7X c #B426D6",
"8X c #B524D9",
"9X c #B926DB",
"0X c #C223C1",
"qX c #C922C5",
"wX c #DD3BCA",
"eX c #D73ACA",
"rX c #C322DD",
"tX c #D62BD4",
"yX c #D92AD7",
"uX c #DA2CD9",
"iX c #CC36D7",
"pX c #D531D3",
"aX c #D039D7",
"sX c #E237CF",
"dX c #E23ACB",
"fX c #E13BC1",
"gX c #E236D3",
"hX c #E338D2",
"jX c #D524E3",
"kX c #DA26E5",
"lX c #DA2AE5",
"zX c #E334E7",
"xX c #E93DE7",
"cX c #E83BE7",
"vX c #AA45C5",
"bX c #C64FC1",
"nX c #CC4DC4",
"mX c #D14CC7",
"MX c #DB42CE",
"NX c #D44BCA",
"BX c #DB49CD",
"VX c #D446CC",
"CX c #DE47D0",
"ZX c #E346D2",
"AX c #E944E6",
"SX c #E549E5",
"DX c #EA4CE7",
"FX c #EB51E7",
"GX c #EE54E8",
"HX c #BFA68E",
"JX c #D08E81",
"KX c #C79D89",
"LX c #D29382",
"PX c #C1A48D",
"IX c #C4AC8F",
"UX c None",
/* pixels */
"UXUXUXUXUXUXUXUXUXUXUXUXUXUXUXUXUXUXUXUXUXUXUXUXUXUXUXUXUXUXUXUXUXUXUXUXUXUXUXUXUXUXUXUXUXUXUXUXUXUXUXUXUXUXUXUXUXUXUXUXUXUXUXUX",
"UXUXUXUXUXUXUXUXUXUXUXUXUXUXUXUXUXUXUXUXUXUXUXUXUXUXUXUXUXUXUXUXUXUXUXUXUXUXUXUXUXUXUXUXUXUXUXUXUXUXUXUXUXUXUXUXUXUXUXUXUXUXUXUX",
"UXUXUXUXUXUXUXUXUXUXUXUXUXUXUXUXUXUXUXUXUXUXUXUXUXUXUXUXUXUXUXUXUXUXUXUXUXUXUXUXUXUXUXUXUXUXUXUXUXUXUXUXUXUXUXUXUXUXUXUXUXUXUXUX",
"UXUXUXUXUXUXUXUXUXUXUXUXUXUXUXUXUXUXUXUXUXUXUXUXUXUXUXUXUXUXUXUXUXUXUXUXUXUXUXUXUXUXUXUXUXUXUXUXUXUXUXUXUXUXUXUXUXUXUXUXUXUXUXUX",
"UXUXUXUXUXUXUXUXUXUXUXUXUXUXUXUXUXUXUXUXUXUXUXUXUXUXUXUXUXUXUXUXUXUXUXUXUXUXUXUXUXUXUXUXUXUXUXUXUXUXUXUXUXUXUXUXUXUXUXUXUXUXUXUX",
"UXUXUXUXUXUXUXUXUXUXUXUXUX@   UXUXUXUXUXUXUXUXUXUXUXUXUXUXUXUXUXUXUXUXUXUXUXUXUXUXUXUXUXUXUXUXUXUXHXHXUXUXUXUXUXUXUXUXUXUXUXUXUX",
"UXUXUXUXUXUXUXUXUXUXUXUXUX@   0 UXUXUXUXUXUXUXUXUXUXUXUXUXUXUXUXUXUXUXUXUXUXUXUXUXUXUXUXUXUXUXUXHXPXPXUXUXUXUXUXUXUXUXUXUXUXUXUX",
"UXUXUXUXUXUXUXUXUXUXUXUXUX+   0 . UXUXUXUXUXUXUXUXUXUXUXUXUXUXUXUXUXUXUXUXUXUXUXUXUXUXUXUXUXIXHXHXPXPXUXUXUXUXUXUXUXUXUXUXUXUXUX",
"UXUXUXUXUXUXUXUXUXUXUXUXUX+   0 . q 0 UXUXUXUXUXUXUXUXUXUXUXUXUXUXUXUXUXUXUXUXUXUXUXUXUXUX% LXKXPXPXPXUXUXUXUXUXUXUXUXUXUXUXUXUX",
"UXUXUXUXUXUXUXUXUXUXUXUXUX+   0 q # q q UXUXUXUXUXUXUXUXUXUXUXUXUXUXUXUXUXUXUXUXUXUXUXUXA.% ; & JXKXPXUXUXUXUXUXUXUXUXUXUXUXUXUX",
"UXUXUXUXUXUXUXUXUXUXUXUXUX+ . q q q q q # UXUXUXUXUXUXUXUXUXUXUXUXUXUXUXUXUXUXUXUXUXUXC.A.H.* & * * = UXUXUXUXUXUXUXUXUXUXUXUXUX",
"UXUXUXUXUXUXUXUXUXUXUXUXUX+ . 0 q q # 0 : 2 4 UXUXUXUXUXUXUXUXUXUXUXUXUXUXUXUXUXUXR A.C.C.H.* = = = = UXUXUXUXUXUXUXUXUXUXUXUXUX",
"UXUXUXUXUXUXUXUXUXUXUXUXUXUX. q # q : > > 1 4 8 UXUXUXUXUXUXUXUXUXUXUXUXUXUXUXUXR A.C.C.C.G.- = = = UXUXUXUXUXUXUXUXUXUXUXUXUXUX",
"UXUXUXUXUXUXUXUXUXUXUXUXUXUXUXq : < > < 2 1 4 4 4 UXUXUXUXUXUXUXUXUXUXUXUXUXUXR A.C.C.D.D.G.- = = UXUXUXUXUXUXUXUXUXUXUXUXUXUXUX",
"UXUXUXUXUXUXUXUXUXUXUXUXUXUXUXUXUX> < > 1 1 4 4 6 6 8 UXUXUXUXUXUXUXUXUXUXi P Z.C.C.C.D.D.G.= = UXUXUXUXUXUXUXUXUXUXUXUXUXUXUXUX",
"UXUXUXUXUXUXUXUXUXUXUXUXUXUXUXUXUXUX> 2 1 1 4 4 3 6 6 9 UXUXUXUXUXUXUXUXv v x 3.N.C.D.D.D.F.UXUXUXUXUXUXUXUXUXUXUXUXUXUXUXUXUXUX",
"UXUXUXUXUXUXUXUXUXUXUXUXUXUXUXUXUXUXUX3 3 3 3 4 6 6 6 6 8 UXUXUXUXUXUXz p p x 3.3.m.N.D.F.UXUXUXUXUXUXUXUXUXUXUXUXUXUXUXUXUXUXUX",
"UXUXUXUXUXUXUXUXUXUXUXUXUXUXUXUXUXUXUXUX3 3 4 4 4 6 7 X.#.C UXUXUXUX:X0.J a m m.M.m.m.m.UXUXUXUXUXUXUXUXUXUXUXUXUXUXUXUXUXUXUXUX",
"UXUXUXUXUXUXUXUXUXUXUXUXUXUXUXUXUXUXUXUXUXUX3 6 7 X.@.@.#.#.C Z A %X%X%Xe.L n 5.5.5.4.UXUXUXUXUXUXUXUXUXUXUXUXUXUXUXUXUXUXUXUXUX",
"UXUXUXUXUXUXUXUXUXUXUXUXUXUXUXUXUXUXUXUXUXUXUX7 ......@.#.=.Z A Z $X%Xe.w.0.h.6.6.UXUXUXUXUXUXUXUXUXUXUXUXUXUXUXUXUXUXUXUXUXUXUX",
"UXUXUXUXUXUXUXUXUXUXUXUXUXUXUXUXUXUXUXUXUXUXUXUX....@.#.o.1.S Z Z q.r.w.0.0.0X6.UXUXUXUXUXUXUXUXUXUXUXUXUXUXUXUXUXUXUXUXUXUXUXUX",
"UXUXUXUXUXUXUXUXUXUXUXUXUXUXUXUXUXUXUXUXUXUXUXUXUXUX#.#.o.>.1.Z A <.%Xw.0.r.qXUXUXUXUXUXUXUXUXUXUXUXUXUXUXUXUXUXUXUXUXUXUXUXUXUX",
"UXUXUXUXUXUXUXUXUXUXUXUXUXUXUXUXUXUXUXUXUXUXUXUXUXUXUX#.o.%.@X=.A H e.w.L j.UXUXUXUXUXUXUXUXUXUXUXUXUXUXUXUXUXUXUXUXUXUXUXUXUXUX",
"UXUXUXUXUXUXUXUXUXUXUXUXUXUXUXUXUXUXUXUXUXUXUXUXUXUX#.#.#.;.@X#XA D w.0.0.0XUXUXUXUXUXUXUXUXUXUXUXUXUXUXUXUXUXUXUXUXUXUXUXUXUXUX",
"UXUXUXUXUXUXUXUXUXUXUXUXUXUXUXUXUXUXUXUXUXUXUXUXUXO.+.+.$.$.#X;X,.S 0.9.s.qX0XUXUXUXUXUXUXUXUXUXUXUXUXUXUXUXUXUXUXUXUXUXUXUXUXUX",
"UXUXUXUXUXUXUXUXUXUXUXUXUXUXUXUXUXUXUXUXUXUXUX$.+.O.%.$.$.$.+X;X@XS 0.9.l.0Xv.z.7.UXUXUXUXUXUXUXUXUXUXUXUXUXUXUXUXUXUXUXUXUXUXUX",
"UXUXUXUXUXUXUXUXUXUXUXUXUXUXUXUXUXUXUXUXUXUX>.>.;.O.O.%.$.$.2.-X,X<.F u.v.v.v.z.g.c.UXUXUXUXUXUXUXUXUXUXUXUXUXUXUXUXUXUXUXUXUXUX",
"UXUXUXUXUXUXUXUXUXUXUXUXUXUXUXUXUXUXUXUXUX>.>.>.1.1.;.;.:.$.1.UXUX-XF k.v.z.z.l.f.{.oXUXUXUXUXUXUXUXUXUXUXUXUXUXUXUXUXUXUXUXUXUX",
"UXUXUXUXUXUXUXUXUXUXUXUXUXUXUXUXUXUXUXUX1.>.1.>.1.1.1.1.:.;.UXUXUXUXq.l.v.z.x.x.b.n.n.n.dXUXUXUXUXUXUXUXUXUXUXUXUXUXUXUXUXUXUXUX",
"UXUXUXUXUXUXUXUXUXUXUXUXUXUXUXUXUXUXM -.1.>.>.>.>.1.1.2.UXUXUXUXUXUXUXUXtXtXyXuXgXhXsXsXdXdXUXUXUXUXUXUXUXUXUXUXUXUXUXUXUXUXUXUX",
"UXUXUXUXUXUXUXUXUXUXUXUXUXUXUXUXUXw B 2.1.1.2.2.+X#X#XUXUXUXUXUXUXUXUXUXUXyXpXpXwXwXwXwXwXZXZXUXUXUXUXUXUXUXUXUXUXUXUXUXUXUXUXUX",
"UXUXUXUXUXUXUXUXUXUXUXUXUXUXUXUXt u 9.8X9X7X8X8X7X7XUXUXUXUXUXUXUXUXUXUXUXUXpXeXwXwXwXMXCXCXBXBXUXUXUXUXUXUXUXUXUXUXUXUXUXUXUXUX",
"UXUXUXUXUXUXUXUXUXUXUXUXUXUXUXr t t 8.r.6X9X7X7X6XUXUXUXUXUXUXUXUXUXUXUXUXUXUXUXeXVXMXBXBXNXNXNXNX.XUXUXUXUXUXUXUXUXUXUXUXUXUXUX",
"UXUXUXUXUXUXUXUXUXUXUXUXUXO r t t t 8.w.p.3X6XUXUXUXUXUXUXUXUXUXUXUXUXUXUXUXUXUXUXVXNXNXmXmXmXnXnX X}.UXUXUXUXUXUXUXUXUXUXUXUXUX",
"UXUXUXUXUXUXUXUXUXUXUXUXUXO o t t t t.p.p.u.UXUXUXUXUXUXUXUXUXUXUXUXUXUXUXUXUXUXUXUXmXnXnXnXnXnXnX|.}.UXUXUXUXUXUXUXUXUXUXUXUXUX",
"UXUXUXUXUXUXUXUXUXUXUXUXUXo o e y c t.a.a.UXUXUXUXUXUXUXUXV UXUXUXUXUXUXUXUXUXUXUXUXUXUXbXXXXX^.^.|.T.UXUXUXUXUXUXUXUXUXUXUXUXUX",
"UXUXUXUXUXUXUXUXUXUXUXUXUXo g $ b c t.a.UXUXUXUXUXUXUXUXUX@.@.UXUXUXUXUXUXUXUXUXUXUXUXUXUX^.^.^.^.^.E.UXUXUXUXUXUXUXUXUXUXUXUXUX",
"UXUXUXUXUXUXUXUXUXUXUXUXUXs s s s c i.a.UXUXUXUXUXUXUXUXUX@.#.@.;.UXUXUXUXUXUXUXUXUXUXUXUX~.~.~.~.~.R.UXUXUXUXUXUXUXUXUXUXUXUXUX",
"UXUXUXUXUXUXUXUXUXUXUXUXUXs h h h f i.d.UXUXUXUXUXUXUXUXUX@.#.o.;.+XUXUXUXUXUXUXUXUXUXUXUX!.!.Q.W.W.R.UXUXUXUXUXUXUXUXUXUXUXUXUX",
"UXUXUXUXUXUXUXUXUXUXUXUXUXh d d d j L.vXUXUXUXUXUXUXUXUXUX#.#.o.;.+X,.UXUXUXUXUXUXUXUXUXUX[.[.[.].].].UXUXUXUXUXUXUXUXUXUXUXUXUX",
"UXUXUXUXUXUXUXUXUXUXUXUXUXj j j k y.L.Y.UXUXUXUXUXUXUXUXUX+.#.$.+.+X@XUXUXUXUXUXUXUXUXUXUX'.'.'.'.'.'.UXUXUXUXUXUXUXUXUXUXUXUXUX",
"UXUXUXUXUXUXUXUXUXUXUXUXUXk k k [ L.J.{ UXUXUXUXUXUXUXUXUX%.O.+.$.+X*XUXUXUXUXUXUXUXUXUXUX`.`.`.`.`.U.UXUXUXUXUXUXUXUXUXUXUXUXUX",
"UXUXUXUXUXUXUXUXUXUXUXUXUXl U Y P.K.K.K.UXUXUXUXUXUXUXUXUXO.%.%.O.2.*XUXUXUXUXUXUXUXUXUXUX_._._._._.I.UXUXUXUXUXUXUXUXUXUXUXUXUX",
"UXUXUXUXUXUXUXUXUXUXUXUXUXU Y P.{ { { } UXUXUXUXUXUXUXUXUX>.%.%.%.1.=XUXUXUXUXUXUXUXUXUXUX(.(._.(.(./.UXUXUXUXUXUXUXUXUXUXUXUXUX",
"UXUXUXUXUXUXUXUXUXUXUXUXUXI } } } } } } UXUXUXUXUXUXUXUXUX1.1.&.%.:.>XUXUXUXUXUXUXUXUXUXUX). .).)././.UXUXUXUXUXUXUXUXUXUXUXUXUX",
"UXUXUXUXUXUXUXUXUXUXUXUXUXT W Q Q Q Q Q UXUXUXUXUXUXUXUXUX*.1.2.2.1.>XUXUXUXUXUXUXUXUXUXUX . . .).| | UXUXUXUXUXUXUXUXUXUXUXUXUX",
"UXUXUXUXUXUXUXUXUXUXUXUXUXT E Q Q ( Q ( UXUXUXUXUXUXUXUXUX,X,X,X,X<XjXUXUXUXUXUXUXUXUXUXUX] ] ]  .| | UXUXUXUXUXUXUXUXUXUXUXUXUX",
"UXUXUXUXUXUXUXUXUXUXUXUXUXR R Q _ ( ( ( UXUXUXUXUXUXUXUXUX9X1X1X<XrXkXUXUXUXUXUXUXUXUXUXUX] ] ] ' ' ` UXUXUXUXUXUXUXUXUXUXUXUXUX",
"UXUXUXUXUXUXUXUXUXUXUXUXUXR ! ( ( ( ( ~ UXUXUXUXUXUXUXUXUX<X<X<X<XjXlXUXUXUXUXUXUXUXUXUXUX' ' ' ' ' ` UXUXUXUXUXUXUXUXUXUXUXUXUX",
"UXUXUXUXUXUXUXUXUXUXUXUXUX! ! ~ ) ~ ) ) UXUXUXUXUXUXUXUXUX1X<X,XrXkXjXUXUXUXUXUXUXUXUXUXUX) ' ' ( ' ' UXUXUXUXUXUXUXUXUXUXUXUXUX",
"UXUXUXUXUXUXUXUXUXUXUXUXUX! ! ! ) ) / / UXUXUXUXUXUXUXUXUX<X,X,XjXlXxXUXUXUXUXUXUXUXUXUXUX) ' ) ( ' ' UXUXUXUXUXUXUXUXUXUXUXUXUX",
"UXUXUXUXUXUXUXUXUXUXUXUXUX! ^ ^ ^ / ^ / UXUXUXUXUXUXUXUXUX&X=X2XzXxXDXUXUXUXUXUXUXUXUXUXUX) ) ) ) ) ) UXUXUXUXUXUXUXUXUXUXUXUXUX",
"UXUXUXUXUXUXUXUXUXUXUXUXUX^ ^ ^ / / ^ / UXUXUXUXUXUXUXUXUX3X6XzXxXcXxXUXUXUXUXUXUXUXUXUXUX) ) ) ) ) ) UXUXUXUXUXUXUXUXUXUXUXUXUX",
"UXUXUXUXUXUXUXUXUXUXUXUXUX^ ^ ^ ^ / / UXUXUXUXUXUXUXUXUXUXiXiXDXAXcXxXUXUXUXUXUXUXUXUXUXUX/ ) / ) ) ) UXUXUXUXUXUXUXUXUXUXUXUXUX",
"UXUXUXUXUXUXUXUXUXUXUXUXUX^ ^ ^ ^ ^ UXUXUXUXUXUXUXUXUXUXUXUXiXSXDXDXAXUXUXUXUXUXUXUXUXUXUXUX/ ) ) ) / UXUXUXUXUXUXUXUXUXUXUXUXUX",
"UXUXUXUXUXUXUXUXUXUXUXUXUX^ ^ ^ ^ UXUXUXUXUXUXUXUXUXUXUXUXUXUXSXDXDXFXUXUXUXUXUXUXUXUXUXUXUXUX/ / ) ) UXUXUXUXUXUXUXUXUXUXUXUXUX",
"UXUXUXUXUXUXUXUXUXUXUXUXUX^ ^ ^ UXUXUXUXUXUXUXUXUXUXUXUXUXUXUXUXDXDXFXUXUXUXUXUXUXUXUXUXUXUXUXUX/ / ) UXUXUXUXUXUXUXUXUXUXUXUXUX",
"UXUXUXUXUXUXUXUXUXUXUXUXUX^ ^ UXUXUXUXUXUXUXUXUXUXUXUXUXUXUXUXUXUXFXGXUXUXUXUXUXUXUXUXUXUXUXUXUXUX/ ) UXUXUXUXUXUXUXUXUXUXUXUXUX",
"UXUXUXUXUXUXUXUXUXUXUXUXUXUXUXUXUXUXUXUXUXUXUXUXUXUXUXUXUXUXUXUXUXUXGXUXUXUXUXUXUXUXUXUXUXUXUXUXUXUX/ UXUXUXUXUXUXUXUXUXUXUXUXUX",
"UXUXUXUXUXUXUXUXUXUXUXUXUXUXUXUXUXUXUXUXUXUXUXUXUXUXUXUXUXUXUXUXUXUXUXUXUXUXUXUXUXUXUXUXUXUXUXUXUXUXUXUXUXUXUXUXUXUXUXUXUXUXUXUX",
"UXUXUXUXUXUXUXUXUXUXUXUXUXUXUXUXUXUXUXUXUXUXUXUXUXUXUXUXUXUXUXUXUXUXUXUXUXUXUXUXUXUXUXUXUXUXUXUXUXUXUXUXUXUXUXUXUXUXUXUXUXUXUXUX",
"UXUXUXUXUXUXUXUXUXUXUXUXUXUXUXUXUXUXUXUXUXUXUXUXUXUXUXUXUXUXUXUXUXUXUXUXUXUXUXUXUXUXUXUXUXUXUXUXUXUXUXUXUXUXUXUXUXUXUXUXUXUXUXUX",
"UXUXUXUXUXUXUXUXUXUXUXUXUXUXUXUXUXUXUXUXUXUXUXUXUXUXUXUXUXUXUXUXUXUXUXUXUXUXUXUXUXUXUXUXUXUXUXUXUXUXUXUXUXUXUXUXUXUXUXUXUXUXUXUX",
"UXUXUXUXUXUXUXUXUXUXUXUXUXUXUXUXUXUXUXUXUXUXUXUXUXUXUXUXUXUXUXUXUXUXUXUXUXUXUXUXUXUXUXUXUXUXUXUXUXUXUXUXUXUXUXUXUXUXUXUXUXUXUXUX"
};
