/* XPM */
static char *b9708e53bff64efe8cd16a464ab3f647[] = {
/* columns rows colors chars-per-pixel */
"32 32 240 2 ",
"   c #441A7B",
".  c #451A7C",
"X  c #451B7D",
"o  c #451D7D",
"O  c #451C7F",
"+  c #451D7F",
"@  c #461C7E",
"#  c #6E1A78",
"$  c #4B256D",
"%  c #4C246D",
"&  c #4D2370",
"*  c #6F207F",
"=  c #D7877C",
"-  c #DB837A",
";  c #D4897D",
":  c #D6897C",
">  c #D58B7D",
",  c #D48B7E",
"<  c #3F1787",
"1  c #3B158F",
"2  c #330E9C",
"3  c #371191",
"4  c #2E0FAB",
"5  c #300EA4",
"6  c #2D12AC",
"7  c #2D11AF",
"8  c #2E10AF",
"9  c #3410B2",
"0  c #3510B6",
"q  c #2821A7",
"w  c #431980",
"e  c #6D1B87",
"r  c #601290",
"t  c #6B1692",
"y  c #6C1698",
"u  c #6C1C9D",
"i  c #4F2E9A",
"p  c #5E2A9C",
"a  c #6F2280",
"s  c #6E2A83",
"d  c #6F2884",
"f  c #6D2D88",
"g  c #6C3585",
"h  c #6C3686",
"j  c #6C2395",
"k  c #7C3E9B",
"l  c #4417B8",
"z  c #4210BF",
"x  c #5114BA",
"c  c #6B17BC",
"v  c #6818BD",
"b  c #7F1EB5",
"n  c #7718BF",
"m  c #6B418D",
"M  c #674E95",
"N  c #7A4392",
"B  c #77479C",
"V  c #635995",
"C  c #6B5D98",
"Z  c #75549E",
"A  c #77579F",
"S  c #775A9F",
"D  c #646095",
"F  c #676396",
"G  c #656695",
"H  c #666895",
"J  c #656A95",
"K  c #666C95",
"L  c #676C96",
"P  c #686A97",
"I  c #696B97",
"U  c #6A6B97",
"Y  c #686D96",
"T  c #6F629B",
"R  c #6B6798",
"E  c #6D6699",
"W  c #6B6A98",
"Q  c #6B6B98",
"!  c #6C6998",
"~  c #6D6999",
"^  c #6E6A99",
"/  c #6F699A",
"(  c #6B6C98",
")  c #6E6D99",
"_  c #70609A",
"`  c #78679F",
"'  c #716B9B",
"]  c #716D9B",
"[  c #72699C",
"{  c #73699C",
"}  c #77689E",
"|  c #766B9E",
" . c #776B9E",
".. c #7E50A3",
"X. c #7F63A3",
"o. c #7E6AA3",
"O. c #560FC8",
"+. c #580ECB",
"@. c #590ECB",
"#. c #5A0FCA",
"$. c #4B10C4",
"%. c #4D10C6",
"&. c #4E10C6",
"*. c #4F10C6",
"=. c #5010C6",
"-. c #5210C7",
";. c #5A11C5",
":. c #5C11C8",
">. c #670FCB",
",. c #600ECC",
"<. c #6114C0",
"1. c #6F11C7",
"2. c #6111C9",
"3. c #6211C9",
"4. c #6011CA",
"5. c #6410CC",
"6. c #6910CA",
"7. c #6E11C8",
"8. c #6B12CC",
"9. c #7718C3",
"0. c #7111C8",
"q. c #7113CA",
"w. c #7312CA",
"e. c #7610CA",
"r. c #7113CC",
"t. c #7410CD",
"y. c #7411CE",
"u. c #7B15C9",
"i. c #80368F",
"p. c #98309F",
"a. c #AD3894",
"s. c #891FB7",
"d. c #8C1EB4",
"f. c #841DB8",
"g. c #881DB8",
"h. c #911CBC",
"j. c #941DBC",
"k. c #A01FBD",
"l. c #8523B2",
"z. c #8B24B1",
"x. c #8329B4",
"c. c #8B26B8",
"v. c #8E38B5",
"b. c #BB27B1",
"n. c #B621BF",
"m. c #B924BA",
"M. c #BF24BD",
"N. c #C439A1",
"B. c #C224BD",
"V. c #9C438A",
"C. c #9E5488",
"Z. c #8B608B",
"A. c #89638A",
"S. c #A36186",
"D. c #A06685",
"F. c #A16C86",
"G. c #AE6D83",
"H. c #AB6F84",
"J. c #B06E82",
"K. c #AC7185",
"L. c #8C47AD",
"P. c #824EA8",
"I. c #A55DB1",
"U. c #A65DB3",
"Y. c #A85FB6",
"T. c #B253B1",
"R. c #B453B6",
"E. c #B653B8",
"W. c #B754B9",
"Q. c #8066A2",
"!. c #806AA3",
"~. c #8A60A8",
"^. c #8A65A8",
"/. c #8A67A8",
"(. c #8A68A8",
"). c #9763B0",
"_. c #9964B0",
"`. c #9965B0",
"'. c #9866B0",
"]. c #AA60B9",
"[. c #C14EB1",
"{. c #C34FBC",
"}. c #D04ABF",
"|. c #8016C1",
" X c #8917CC",
".X c #8B16CF",
"XX c #9F1CC1",
"oX c #9319CE",
"OX c #9D1ACD",
"+X c #8916D0",
"@X c #9C17D3",
"#X c #981ED1",
"$X c #9C1FD1",
"%X c #9B1DD6",
"&X c #A317D5",
"*X c #AC1AD6",
"=X c #AA1CD5",
"-X c #A81CD6",
";X c #A91DD7",
":X c #AF1ED8",
">X c #B31FD9",
",X c #AB25CD",
"<X c #B428D6",
"1X c #CC29C7",
"2X c #CB29CB",
"3X c #DB37C5",
"4X c #DE39CD",
"5X c #DD3BCD",
"6X c #C620DE",
"7X c #D932D4",
"8X c #D035DC",
"9X c #E23AC4",
"0X c #E23ACC",
"qX c #D222E2",
"wX c #DC28E5",
"eX c #DE2EE5",
"rX c #E83CE7",
"tX c #EA3DE7",
"yX c #C54FC0",
"uX c #C74EC1",
"iX c #CD4EC6",
"pX c #D641C8",
"aX c #D34BC9",
"sX c #D748CB",
"dX c #D64CCA",
"fX c #DF44D0",
"gX c #DF48D0",
"hX c #DA41DD",
"jX c #EB49E7",
"kX c #EB4CE7",
"lX c #EC40E8",
"zX c #EC4FE8",
"xX c #EC55E7",
"cX c #BFA68F",
"vX c #D68F80",
"bX c #C79C88",
"nX c #C4A28A",
"mX c #C0A58D",
"MX c #C6AB8D",
"NX c None",
/* pixels */
"NXNXNXNXNXNXNXNXNXNXNXNXNXNXNXNXNXNXNXNXNXNXNXNXNXNXNXNXNXNXNXNX",
"NXNXNXNXNXNXNXNXNXNXNXNXNXNXNXNXNXNXNXNXNXNXNXNXNXNXNXNXNXNXNXNX",
"NXNXNXNXNXNXNXNXNXNXNXNXNXNXNXNXNXNXNXNXNXNXNXNXNXNXNXNXNXNXNXNX",
"NXNXNXNXNXNX$   NXNXNXNXNXNXNXNXNXNXNXNXNXNXNXMXcXmXNXNXNXNXNXNX",
"NXNXNXNXNXNX% . w w NXNXNXNXNXNXNXNXNXNXNXNXG.vXbXnXNXNXNXNXNXNX",
"NXNXNXNXNXNX& . w w 1 NXNXNXNXNXNXNXNXNXNXA.J.- = > NXNXNXNXNXNX",
"NXNXNXNXNXNXNXo w 3 5 6 NXNXNXNXNXNXNXNXA.D.K.> > NXNXNXNXNXNXNX",
"NXNXNXNXNXNXNXNXNX2 6 6 7 q NXNXNXNXi N S.H.K., NXNXNXNXNXNXNXNX",
"NXNXNXNXNXNXNXNXNXNX6 6 6 0 0 NXNXz.p i.V.C.NXNXNXNXNXNXNXNXNXNX",
"NXNXNXNXNXNXNXNXNXNXNX9 $.&.:.x 9.XXf.p.a.NXNXNXNXNXNXNXNXNXNXNX",
"NXNXNXNXNXNXNXNXNXNXNXNXNX&.3.<.c j.h.b.NXNXNXNXNXNXNXNXNXNXNXNX",
"NXNXNXNXNXNXNXNXNXNXNXNXNX-.3.u.v g.k.NXNXNXNXNXNXNXNXNXNXNXNXNX",
"NXNXNXNXNXNXNXNXNXNXNXNX@.@.:..X9.f.n.B.NXNXNXNXNXNXNXNXNXNXNXNX",
"NXNXNXNXNXNXNXNXNXNXNX1.6.5.3.+XoXs.M.m.N.NXNXNXNXNXNXNXNXNXNXNX",
"NXNXNXNXNXNXNXNXNXNX7.1.1.w.NXNXNXNX1X2X3X9X0XNXNXNXNXNXNXNXNXNX",
"NXNXNXNXNXNXNXNXr |.%X#X$XNXNXNXNXNXNX7X5X5XfXgXNXNXNXNXNXNXNXNX",
"NXNXNXNXNXNXNXt y d.,X<XNXNXNXNXNXNXNXNXpXsXdXdX}.NXNXNXNXNXNXNX",
"NXNXNXNXNXNX# e u l.c.NXNXNXNXNXNXNXNXNXNXiXuXyX{.[.NXNXNXNXNXNX",
"NXNXNXNXNXNXa a j x.NXNXNXNX&.&.NXNXNXNXNXNXW.E.R.T.NXNXNXNXNXNX",
"NXNXNXNXNXNXs s f v.NXNXNXNX=.-.q.NXNXNXNXNX].Y.U.U.NXNXNXNXNXNX",
"NXNXNXNXNXNXg g k L.NXNXNXNX@.O.r. XNXNXNXNX_._._.).NXNXNXNXNXNX",
"NXNXNXNXNXNXm B P...NXNXNXNX>.,.8.@XNXNXNXNX(.(./.~.NXNXNXNXNXNX",
"NXNXNXNXNXNXM A A S NXNXNXNXw.y.y.&XNXNXNXNXo.!.X.X.NXNXNXNXNXNX",
"NXNXNXNXNXNXV C _ T NXNXNXNX=X=X:XqXNXNXNXNX| | } } NXNXNXNXNXNX",
"NXNXNXNXNXNXD F R R NXNXNXNX>X=X6XwXNXNXNXNX' ' { { NXNXNXNXNXNX",
"NXNXNXNXNXNXG H I I NXNXNXNXOX*XeXrXNXNXNXNX) / / / NXNXNXNXNXNX",
"NXNXNXNXNXNXH H I L NXNXNXNXNX8XlXrXNXNXNXNX( Q / / NXNXNXNXNXNX",
"NXNXNXNXNXNXL L L NXNXNXNXNXNXhXkXkXNXNXNXNXNXU I U NXNXNXNXNXNX",
"NXNXNXNXNXNXL L NXNXNXNXNXNXNXNXzXxXNXNXNXNXNXNXU ( NXNXNXNXNXNX",
"NXNXNXNXNXNXNXNXNXNXNXNXNXNXNXNXNXNXNXNXNXNXNXNXNXNXNXNXNXNXNXNX",
"NXNXNXNXNXNXNXNXNXNXNXNXNXNXNXNXNXNXNXNXNXNXNXNXNXNXNXNXNXNXNXNX",
"NXNXNXNXNXNXNXNXNXNXNXNXNXNXNXNXNXNXNXNXNXNXNXNXNXNXNXNXNXNXNXNX"
};
