/* XPM */
static char *e03f2fb5629248fca1041ff690b87e7b[] = {
/* columns rows colors chars-per-pixel */
"16 16 65 1 ",
"  c #451B7F",
". c #6C187E",
"X c #4A2272",
"o c #6D247E",
"O c #391391",
"+ c #2F10A9",
"@ c #2C10AD",
"# c #291DA9",
"$ c #3B11BB",
"% c #6E3B8B",
"& c #7A2C9F",
"* c #4D14BD",
"= c #6613A7",
"- c #791CA5",
"; c #7719BD",
": c #7C1ABD",
"> c #685597",
", c #745D9E",
"< c #666596",
"1 c #656B95",
"2 c #676C95",
"3 c #676D95",
"4 c #6A6997",
"5 c #6C6A99",
"6 c #6E6D99",
"7 c #71699B",
"8 c #796C9F",
"9 c #7C67A1",
"0 c #4C0EC6",
"q c #500FC8",
"w c #590DCB",
"e c #5D0FCA",
"r c #6413C7",
"t c #7612CD",
"y c #7614CF",
"u c #852AA3",
"i c #AC22B9",
"p c #B624BA",
"a c #A2438D",
"s c #956488",
"d c #BF7A81",
"f c #BD7982",
"g c #8248A3",
"h c #AD59B3",
"j c #B15BB9",
"k c #9164AD",
"l c #9269AC",
"z c #C84CB7",
"x c #8A1CC4",
"c c #8518CD",
"v c #8E15D2",
"b c #8718D0",
"n c #A218D7",
"m c #AF1BD6",
"M c #AB27CD",
"N c #D12CCC",
"B c #DE3AC7",
"V c #CC33D9",
"C c #DB2BE5",
"Z c #CE4EC7",
"A c #D946CB",
"S c #E243D0",
"D c #ED45E8",
"F c #D29782",
"G c None",
/* pixels */
"GGGGGGGGGGGGGGGG",
"GGGGGGGGGGGGGGGG",
"GGGX GGGGGGdFGGG",
"GGGGO+#GGGsdGGGG",
"GGGGG@$*:uaGGGGG",
"GGGGGGqr;iGGGGGG",
"GGGGGGeyxpGGGGGG",
"GGGG=bcGGNBSGGGG",
"GGG.-MGGGGAZzGGG",
"GGGo&GG0GGGjhGGG",
"GGG%gGGwtGGlkGGG",
"GGG>,GGvnGG89GGG",
"GGG<4GGmCGG67GGG",
"GGG13GGVDGG35GGG",
"GGGGGGGGGGGGGGGG",
"GGGGGGGGGGGGGGGG"
};
